<?xml version="1.0" encoding="utf-8"?>
<!-- Generator: Adobe Illustrator 22.1.0, SVG Export Plug-In . SVG Version: 6.00 Build 0)  -->
<svg version="1.1" id="SFE_x5F_logo" xmlns="http://www.w3.org/2000/svg" xmlns:xlink="http://www.w3.org/1999/xlink" x="0px"
	 y="0px" viewBox="0 0 346.4 78.6" style="enable-background:new 0 0 346.4 78.6;" xml:space="preserve">
<style type="text/css">
	.st0{fill:#FFFFFF;}
</style>
<g>
	<g>
		<g>
			<g>
				<path class="st0" d="M84.8,42.4c-0.2-3.1-1.2-6.1-3-8.5c-1.7-2.3-3.9-4.1-6.5-5.2c-2.9-1.3-6.1-1.7-9.2-1.4
					c-3.1,0.3-6,1.3-8.8,2.7c-2.7,1.4-5.2,3.2-7.5,5.3c-1.2,1.1-2.3,2.3-3.3,3.5c-1,1.2-1.8,2.5-2.6,3.8c-0.8,1.3-1.5,2.6-2.1,4
					c-0.5,1.1-1,2.3-1.1,3.6c0,0.7,0.1,1.4,0.5,2c0.4,0.6,1,0.9,1.6,1c1.4,0.1,2.7-0.9,3.5-1.9c0.6-0.8,1-1.6,1.5-2.4
					c0.8-1.4,1.6-2.7,2.6-3.9c1-1.2,2.2-2.4,3.4-3.4c1.2-1,2.4-1.8,3.7-2.6c2.7-1.5,5.8-2.4,8.9-2.2c2.9,0.1,5.8,1.3,7.8,3.5
					c1,1.1,1.8,2.3,2.3,3.7c0.5,1.5,0.7,3.1,0.6,4.6c-0.2,3-1.3,5.8-3,8.2c-1.7,2.5-3.9,4.6-6.4,6.3c-1.3,0.9-2.7,1.6-4.2,2.2
					c-1.2,0.5-2.4,0.9-3.6,1.3c-2.3,0.7-4.7,1.2-7.1,1.5c-2.4,0.4-4.8,0.6-7.1,0.8c-1.9,0.1-3.8,0.2-5.7,0.3c-1.1,0-2.2,0-3.2,0
					c-0.5,0-1.1,0-1.7,0h-3.6h-4.8h-4.9H18h-1.8c-0.3,0-0.5,0-0.8,0.1c-0.6,0.1-1.4,0.5-1.5,1.3c-0.1,0.8,0.7,1.2,1.3,1.4
					c0.5,0.1,1,0.1,1.4,0.1h1.7h3.9h4.9H32h3.2c0.4,0,0.7,0,1.1,0c1.7,0,3.4-0.1,5.1-0.1c2.9-0.1,5.9-0.3,8.8-0.6
					c2.5-0.3,5.1-0.6,7.6-1.1c2.5-0.5,5-1.2,7.4-2.1c1.3-0.5,2.6-1.1,3.9-1.7c1.4-0.7,2.6-1.5,3.9-2.5c2.4-1.8,4.7-3.9,6.5-6.3
					c1.7-2.2,3.1-4.6,4.1-7.2C84.5,47.9,85,45.2,84.8,42.4"/>
			</g>
			<g>
				<path class="st0" d="M71.4,51c-0.1-1.5-0.6-3-1.6-4.1c-0.9-1.1-2.2-1.8-3.6-2.1c-3-0.7-6.2,0.4-8.7,2.2
					c-1.3,0.9-2.4,1.9-3.4,3.1c-0.5,0.5-0.9,1.1-1.3,1.7c-0.3,0.4-0.5,0.9-0.7,1.4c-0.2,0.7-0.2,1.5,0.2,2.1
					c0.4,0.6,1.1,0.8,1.8,0.7c1.2-0.1,2.1-0.9,2.9-1.6c0.5-0.5,1-1,1.6-1.5c0.6-0.5,1.2-0.9,1.9-1.2c1.3-0.6,3-1,4.4-0.3
					c0.6,0.3,1.1,0.8,1.4,1.4c0.3,0.6,0.4,1.4,0.3,2.1c-0.2,1.4-1,2.7-1.9,3.8c-1,1.1-2.2,2-3.6,2.7c-1.3,0.7-2.7,1.1-4.1,1.5
					c-2.6,0.7-5.2,1.1-7.9,1.4c-2.4,0.3-4.9,0.5-7.3,0.6c-1.7,0.1-3.5,0.1-5.2,0.1c-0.7,0-1.4,0-2.1,0h-4.4h-4c-0.5,0-1.1,0-1.6,0.4
					c-0.3,0.2-0.4,0.6-0.2,0.9c0.2,0.3,0.6,0.5,0.9,0.5c0.2,0,0.4,0,0.5,0c1.2,0,2.4,0,3.5,0c1.5,0,3.1,0,4.6,0c0.5,0,1.1,0,1.6,0
					c1.2,0,2.3,0,3.5,0c2,0,4-0.1,6.1-0.3c2.5-0.2,4.9-0.4,7.3-0.8c2.5-0.4,4.9-0.9,7.3-1.7c1.4-0.4,2.8-0.9,4.1-1.6
					c1.4-0.7,2.6-1.7,3.7-2.8c2-2,3.7-4.7,3.9-7.7C71.5,51.6,71.5,51.3,71.4,51"/>
			</g>
			<g>
				<path class="st0" d="M108.5,27.8c-0.2-3.1-0.9-6.1-2-9c-1.1-2.7-2.6-5.3-4.4-7.6c-1.7-2.1-3.7-4-6-5.6c-2.2-1.6-4.7-2.8-7.2-3.7
					c-2.9-1-5.9-1.6-9-1.8c-3.1-0.2-6.1,0.1-9.1,0.7c-3.1,0.6-6.1,1.6-8.9,2.8c-2.8,1.2-5.4,2.6-7.9,4.3c-2.6,1.7-5,3.7-7.3,5.8
					c-1.1,1.1-2.3,2.2-3.3,3.3c-1.1,1.2-2.1,2.3-3.1,3.6c-1.8,2.4-3.4,4.9-4.8,7.5c-1.3,2.5-2.5,5-3.6,7.6c-1,2.4-1.9,4.8-2.6,7.3
					c-0.4,1.3-0.8,2.6-0.7,3.9c0,0.7,0.2,1.4,0.6,2c0.4,0.6,1,0.9,1.7,1c1.5,0.1,2.8-1.2,3.5-2.4c0.2-0.4,0.4-0.9,0.6-1.4
					c0.3-0.7,0.5-1.4,0.8-2c1.1-2.8,2.4-5.6,3.9-8.2c1.5-2.7,3.4-5.2,5.5-7.5c2.2-2.3,4.5-4.4,7.1-6.3c2.5-1.8,5.1-3.2,7.9-4.4
					c2.9-1.2,5.9-2,9-2.3c3.1-0.3,6.4-0.1,9.4,0.7c2.8,0.8,5.5,2.1,7.9,3.9c2.3,1.7,4.2,3.9,5.6,6.4c1.5,2.7,2.5,5.6,2.8,8.7
					c0.4,3.2,0.1,6.4-0.7,9.4c-0.7,2.8-1.8,5.5-3.3,8c-1.4,2.5-3.1,4.8-5.1,6.9c-2.1,2.3-4.4,4.3-6.9,6.1c-1.3,0.9-2.6,1.8-4,2.6
					c-1.4,0.8-2.8,1.4-4.2,2c-2.7,1.1-5.6,2-8.5,2.7c-2.4,0.5-4.7,0.9-7.1,1.2c-1.5,0.2-3.1,0.4-4.6,0.5c-3.1,0.3-6.2,0.4-9.3,0.6
					c-2.5,0.1-5,0.2-7.4,0.2c-1.4,0-2.7,0-4.1,0h-1.2h-3.1h-4.4h-5h-4.9H6.8H4c-0.7,0-1.3,0-2,0c-0.6,0.1-1.3,0.3-1.7,0.8
					c-0.2,0.3-0.3,0.6-0.3,1c0.1,0.3,0.3,0.6,0.5,0.9c0.8,0.6,1.8,0.6,2.8,0.6h1.5h2.8h4.2h4.9h5h4.4h3.1c0.4,0,0.8,0,1.2,0
					c2.2,0,4.3,0,6.5-0.1c1.2,0,2.5-0.1,3.7-0.1c2-0.1,4-0.2,5.9-0.3c2.3-0.1,4.6-0.3,6.9-0.5c2.3-0.2,4.5-0.5,6.8-0.9
					c2.6-0.4,5.2-1,7.8-1.7c2.8-0.8,5.6-1.7,8.3-2.7c1.4-0.6,2.8-1.2,4.2-1.8c1.4-0.7,2.8-1.4,4-2.2c2.7-1.7,5.3-3.6,7.7-5.7
					c2.2-1.9,4.3-4,6.2-6.3c1.8-2.2,3.5-4.5,4.9-7c1.4-2.4,2.5-4.9,3.4-7.5c1-3,1.7-6.2,1.9-9.4C108.7,30.8,108.7,29.3,108.5,27.8"
					/>
			</g>
		</g>
		<g>
			<path class="st0" d="M130.7,38.8c0.3,0.7,0.8,1.2,1.3,1.6c0.6,0.4,1.2,0.7,2,0.9c0.8,0.2,1.5,0.3,2.3,0.3c0.5,0,1.1,0,1.7-0.1
				c0.6-0.1,1.2-0.3,1.7-0.5c0.5-0.3,1-0.6,1.4-1.1c0.4-0.5,0.5-1.1,0.5-1.8c0-0.8-0.2-1.4-0.7-1.9c-0.5-0.5-1.1-0.9-1.9-1.2
				c-0.8-0.3-1.7-0.6-2.6-0.8c-1-0.2-2-0.5-3-0.8c-1-0.3-2-0.6-3-1c-1-0.4-1.9-0.9-2.6-1.5c-0.8-0.6-1.4-1.4-1.9-2.3
				c-0.5-0.9-0.7-2-0.7-3.3c0-1.5,0.3-2.7,0.9-3.8c0.6-1.1,1.4-2,2.4-2.7c1-0.7,2.1-1.2,3.3-1.6c1.2-0.3,2.5-0.5,3.7-0.5
				c1.5,0,2.8,0.2,4.2,0.5c1.3,0.3,2.5,0.9,3.6,1.6c1,0.7,1.9,1.7,2.5,2.8c0.6,1.2,0.9,2.5,0.9,4.2h-5.9c-0.1-0.8-0.2-1.5-0.5-2.1
				c-0.3-0.6-0.7-1-1.2-1.3c-0.5-0.3-1.1-0.5-1.7-0.7c-0.6-0.1-1.3-0.2-2.1-0.2c-0.5,0-1,0.1-1.5,0.2c-0.5,0.1-0.9,0.3-1.3,0.6
				c-0.4,0.3-0.7,0.6-1,1s-0.4,0.9-0.4,1.5c0,0.6,0.1,1,0.3,1.3c0.2,0.3,0.6,0.7,1.2,1c0.6,0.3,1.5,0.6,2.5,0.9
				c1.1,0.3,2.5,0.7,4.2,1.1c0.5,0.1,1.2,0.3,2.2,0.6c0.9,0.3,1.8,0.7,2.7,1.3s1.7,1.4,2.4,2.4c0.7,1,1,2.3,1,3.9
				c0,1.3-0.2,2.5-0.7,3.6c-0.5,1.1-1.2,2.1-2.2,2.9c-1,0.8-2.2,1.4-3.6,1.9c-1.4,0.4-3.1,0.7-5,0.7c-1.5,0-3-0.2-4.5-0.6
				c-1.4-0.4-2.7-1-3.8-1.8c-1.1-0.8-2-1.9-2.6-3.1c-0.6-1.3-1-2.8-0.9-4.5h5.9C130.2,37.3,130.4,38.1,130.7,38.8z"/>
			<path class="st0" d="M171.6,43.6c-2.1,1.9-5,2.8-8.7,2.8c-3.8,0-6.7-0.9-8.7-2.8c-2.1-1.9-3.1-4.7-3.1-8.6V17.5h6.1v17.6
				c0,0.8,0.1,1.5,0.2,2.3c0.1,0.7,0.4,1.4,0.8,2c0.4,0.6,1,1,1.7,1.4c0.7,0.4,1.7,0.5,3,0.5c2.2,0,3.7-0.5,4.5-1.5
				c0.8-1,1.2-2.5,1.2-4.7V17.5h6.1v17.6C174.8,38.9,173.7,41.8,171.6,43.6z"/>
			<path class="st0" d="M194.2,17.5c1.2,0,2.4,0.2,3.4,0.6c1,0.4,1.9,1,2.6,1.7c0.7,0.7,1.3,1.5,1.6,2.5c0.4,0.9,0.6,2,0.6,3
				c0,1.7-0.3,3.1-1,4.3s-1.8,2.1-3.4,2.8v0.1c0.8,0.2,1.4,0.5,1.9,1s0.9,1,1.2,1.5s0.5,1.2,0.7,2c0.1,0.7,0.2,1.4,0.3,2.1
				c0,0.5,0.1,1,0.1,1.6c0,0.6,0.1,1.2,0.1,1.9c0.1,0.6,0.2,1.2,0.3,1.8c0.1,0.6,0.4,1.1,0.6,1.4H197c-0.3-0.9-0.5-2-0.6-3.2
				c-0.1-1.2-0.2-2.4-0.3-3.6c-0.2-1.5-0.6-2.6-1.3-3.3c-0.7-0.7-1.8-1-3.3-1h-6.1v11.1h-6.1V17.5H194.2z M192,30.3
				c1.4,0,2.4-0.3,3.1-1c0.7-0.6,1.1-1.7,1.1-3.1c0-1.4-0.4-2.4-1.1-3c-0.7-0.6-1.7-0.9-3.1-0.9h-6.7v8H192z"/>
			<path class="st0" d="M226.8,17.5v5.2h-13.4v6.5h11.6v4.8h-11.6v11.7h-6.1V17.5H226.8z"/>
			<path class="st0" d="M246,17.5c1.2,0,2.4,0.2,3.4,0.6s1.9,1,2.6,1.7c0.7,0.7,1.3,1.5,1.6,2.5c0.4,0.9,0.6,2,0.6,3
				c0,1.7-0.3,3.1-1,4.3c-0.7,1.2-1.8,2.1-3.4,2.8v0.1c0.8,0.2,1.4,0.5,1.9,1c0.5,0.4,0.9,1,1.2,1.5c0.3,0.6,0.5,1.2,0.7,2
				c0.1,0.7,0.2,1.4,0.3,2.1c0,0.5,0.1,1,0.1,1.6c0,0.6,0.1,1.2,0.1,1.9c0.1,0.6,0.2,1.2,0.3,1.8c0.1,0.6,0.4,1.1,0.6,1.4h-6.1
				c-0.3-0.9-0.5-2-0.6-3.2c-0.1-1.2-0.2-2.4-0.4-3.6c-0.2-1.5-0.6-2.6-1.3-3.3c-0.7-0.7-1.8-1-3.3-1h-6.1v11.1H231V17.5H246z
				 M243.8,30.3c1.4,0,2.4-0.3,3.1-1c0.7-0.6,1-1.7,1-3.1c0-1.4-0.3-2.4-1-3c-0.7-0.6-1.7-0.9-3.1-0.9h-6.7v8H243.8z"/>
			<path class="st0" d="M265.1,17.5v28.3H259V17.5H265.1z"/>
			<path class="st0" d="M281.7,17.5c1.8,0,3.5,0.3,5,0.9c1.5,0.6,2.9,1.5,4,2.6c1.1,1.2,2,2.6,2.6,4.4c0.6,1.7,1,3.8,1,6.2
				c0,2.1-0.3,4-0.8,5.7c-0.5,1.7-1.3,3.3-2.4,4.5c-1,1.3-2.4,2.3-3.9,3c-1.6,0.7-3.4,1.1-5.5,1.1h-12V17.5H281.7z M281.2,40.6
				c0.9,0,1.7-0.1,2.6-0.4c0.8-0.3,1.6-0.8,2.2-1.4c0.6-0.7,1.2-1.6,1.6-2.6c0.4-1.1,0.6-2.4,0.6-4c0-1.4-0.1-2.7-0.4-3.9
				c-0.3-1.2-0.7-2.1-1.3-3c-0.6-0.8-1.4-1.4-2.5-1.9s-2.3-0.7-3.8-0.7h-4.4v17.9H281.2z"/>
			<path class="st0" d="M318.6,17.5v5.2h-15v6.1h13.5v4.8h-13.5v6.9h15v5.2h-21.1V17.5H318.6z"/>
			<path class="st0" d="M337.5,17.5c1.2,0,2.4,0.2,3.4,0.6c1,0.4,1.9,1,2.6,1.7c0.7,0.7,1.3,1.5,1.6,2.5c0.4,0.9,0.6,2,0.6,3
				c0,1.7-0.3,3.1-1,4.3s-1.8,2.1-3.4,2.8v0.1c0.8,0.2,1.4,0.5,1.9,1s0.9,1,1.2,1.5c0.3,0.6,0.5,1.2,0.7,2c0.1,0.7,0.2,1.4,0.3,2.1
				c0,0.5,0.1,1,0.1,1.6c0,0.6,0.1,1.2,0.1,1.9c0.1,0.6,0.2,1.2,0.3,1.8c0.1,0.6,0.4,1.1,0.6,1.4h-6.1c-0.3-0.9-0.5-2-0.6-3.2
				c-0.1-1.2-0.2-2.4-0.3-3.6c-0.2-1.5-0.6-2.6-1.3-3.3s-1.8-1-3.3-1h-6.1v11.1h-6.1V17.5H337.5z M335.3,30.3c1.4,0,2.4-0.3,3.1-1
				c0.7-0.6,1.1-1.7,1.1-3.1c0-1.4-0.4-2.4-1.1-3c-0.7-0.6-1.7-0.9-3.1-0.9h-6.7v8H335.3z"/>
		</g>
		<g>
			<polygon class="st0" points="124.3,66.8 126,66.8 126,61 132.7,61 132.7,59.6 126,59.6 126,55.6 133.4,55.6 133.4,54.2 
				124.3,54.2 			"/>
			<path class="st0" d="M147.4,55.8c-0.5-0.6-1.2-1.1-2-1.4c-0.8-0.3-1.8-0.5-2.8-0.5c-1,0-2,0.2-2.8,0.5c-0.8,0.4-1.5,0.8-2,1.4
				c-0.5,0.6-0.9,1.3-1.2,2.1c-0.3,0.8-0.4,1.7-0.4,2.6c0,0.9,0.1,1.8,0.4,2.5c0.3,0.8,0.7,1.5,1.2,2.1c0.5,0.6,1.2,1.1,2,1.4
				c0.8,0.4,1.8,0.5,2.8,0.5c1.1,0,2-0.2,2.8-0.5c0.8-0.4,1.5-0.8,2-1.4c0.5-0.6,0.9-1.3,1.2-2.1c0.3-0.8,0.4-1.7,0.4-2.6
				c0-0.9-0.1-1.8-0.4-2.6C148.4,57.1,148,56.4,147.4,55.8z M147.3,60.5c0,0.7-0.1,1.4-0.3,2c-0.2,0.6-0.5,1.2-0.8,1.7
				c-0.4,0.5-0.9,0.9-1.5,1.1c-0.6,0.3-1.3,0.4-2.1,0.4c-0.8,0-1.6-0.1-2.1-0.4c-0.6-0.3-1.1-0.7-1.5-1.1c-0.4-0.5-0.7-1-0.8-1.7
				c-0.2-0.6-0.3-1.3-0.3-2c0-0.7,0.1-1.4,0.3-2c0.2-0.6,0.5-1.2,0.9-1.7c0.4-0.5,0.9-0.9,1.5-1.1c0.6-0.3,1.3-0.4,2.1-0.4
				c0.7,0,1.4,0.1,2,0.4c0.6,0.2,1.1,0.6,1.5,1c0.4,0.5,0.7,1,0.9,1.6C147.2,59,147.3,59.7,147.3,60.5z"/>
			<path class="st0" d="M161.8,61.7c0,0.7-0.1,1.3-0.2,1.8c-0.1,0.5-0.3,0.9-0.6,1.2c-0.3,0.3-0.7,0.6-1.1,0.7
				c-0.5,0.2-1.1,0.2-1.7,0.2c-1.3,0-2.2-0.3-2.8-0.9c-0.6-0.6-0.9-1.7-0.9-3.1v-7.5h-1.7V62c0,1.6,0.5,2.9,1.3,3.8
				c0.9,0.9,2.3,1.4,4.1,1.4c1.8,0,3.2-0.4,4.1-1.3c0.9-0.9,1.4-2.2,1.4-3.8v-7.8h-1.7V61.7z"/>
			<polygon class="st0" points="177.4,64.4 170,54.2 168.2,54.2 168.2,66.8 170,66.8 170,56.6 177.3,66.8 179.1,66.8 179.1,54.2 
				177.4,54.2 			"/>
			<path class="st0" d="M194.6,57.7c-0.2-0.5-0.4-1-0.7-1.4c-0.3-0.4-0.7-0.8-1.2-1.1c-0.3-0.2-0.7-0.4-1-0.5
				c-0.3-0.1-0.7-0.2-1.1-0.3c-0.4-0.1-0.7-0.1-1.1-0.1c-0.4,0-0.7,0-1.1,0h-4.8v12.6h4.8c0.4,0,0.9,0,1.3-0.1
				c0.4,0,0.9-0.1,1.3-0.2c0.4-0.1,0.8-0.3,1.2-0.5c0.4-0.2,0.7-0.5,1.1-0.8c0.3-0.3,0.6-0.7,0.8-1.1c0.2-0.4,0.4-0.8,0.5-1.2
				c0.1-0.4,0.2-0.8,0.3-1.3c0.1-0.4,0.1-0.9,0.1-1.3c0-0.4,0-0.9-0.1-1.4C194.9,58.6,194.8,58.1,194.6,57.7z M193.4,60.5
				c0,0.4,0,0.8-0.1,1.3c-0.1,0.4-0.2,0.9-0.3,1.3c-0.2,0.4-0.4,0.8-0.6,1.1c-0.3,0.3-0.6,0.6-1,0.8c-0.5,0.2-1,0.4-1.4,0.4
				c-0.5,0.1-1,0.1-1.6,0.1h-2.8v-9.8h2.8c0.5,0,1.1,0,1.6,0.1c0.5,0.1,1,0.2,1.3,0.3c0.4,0.2,0.8,0.5,1.1,0.8
				c0.3,0.3,0.5,0.7,0.7,1.1c0.2,0.4,0.3,0.8,0.3,1.3C193.3,59.6,193.4,60.1,193.4,60.5z"/>
			<path class="st0" d="M202.6,54.2l-5.4,12.6h1.8l1.6-3.8h5.7l1.5,3.8h1.8l-5.3-12.6H202.6z M205.7,61.6h-4.5l2.3-5.6L205.7,61.6z"
				/>
			<polygon class="st0" points="210.8,55.6 215,55.6 215,66.8 216.8,66.8 216.8,55.6 221,55.6 221,54.2 210.8,54.2 			"/>
			<rect x="225" y="54.2" class="st0" width="1.7" height="12.6"/>
			<path class="st0" d="M242.6,55.8c-0.5-0.6-1.2-1.1-2-1.4c-0.8-0.3-1.8-0.5-2.8-0.5c-1,0-2,0.2-2.8,0.5c-0.8,0.4-1.5,0.8-2,1.4
				c-0.5,0.6-0.9,1.3-1.2,2.1c-0.3,0.8-0.4,1.7-0.4,2.6c0,0.9,0.1,1.8,0.4,2.5c0.3,0.8,0.7,1.5,1.2,2.1c0.5,0.6,1.2,1.1,2,1.4
				c0.8,0.4,1.7,0.5,2.8,0.5c1.1,0,2-0.2,2.8-0.5c0.8-0.4,1.5-0.8,2-1.4c0.5-0.6,0.9-1.3,1.2-2.1c0.3-0.8,0.4-1.7,0.4-2.6
				c0-0.9-0.1-1.8-0.4-2.6C243.6,57.1,243.2,56.4,242.6,55.8z M242.5,60.5c0,0.7-0.1,1.4-0.3,2c-0.2,0.6-0.5,1.2-0.8,1.7
				c-0.4,0.5-0.9,0.8-1.5,1.1c-0.6,0.3-1.3,0.4-2.1,0.4c-0.8,0-1.6-0.1-2.1-0.4c-0.6-0.3-1.1-0.7-1.5-1.1c-0.4-0.5-0.7-1-0.8-1.7
				c-0.2-0.6-0.3-1.3-0.3-2c0-0.7,0.1-1.4,0.3-2c0.2-0.6,0.5-1.2,0.9-1.7c0.4-0.5,0.9-0.9,1.5-1.1c0.6-0.3,1.3-0.4,2.1-0.4
				c0.7,0,1.4,0.1,2,0.4c0.6,0.2,1.1,0.6,1.5,1c0.4,0.5,0.7,1,0.9,1.6C242.4,59,242.5,59.7,242.5,60.5z"/>
			<polygon class="st0" points="257.2,54.2 257.2,64.4 249.9,54.2 248.1,54.2 248.1,66.8 249.8,66.8 249.8,56.6 257.2,66.8 
				259,66.8 259,54.2 			"/>
		</g>
		<g>
			<path class="st0" d="M276.1,56.4h-6.7v2.7h6.2v2.2h-6.2v3.3h7v2.3h-9.6V54.2h9.3V56.4z"/>
			<path class="st0" d="M280,54.2h2.7v7.8c0,0.9,0.1,1.5,0.3,1.9c0.3,0.7,1,1.1,2.1,1.1c1.1,0,1.8-0.4,2.1-1.1
				c0.2-0.4,0.3-1,0.3-1.9v-7.8h2.7V62c0,1.3-0.2,2.4-0.6,3.1c-0.8,1.4-2.3,2.1-4.5,2.1c-2.2,0-3.7-0.7-4.5-2.1
				c-0.4-0.8-0.6-1.8-0.6-3.1V54.2z"/>
			<path class="st0" d="M302.3,54.5c0.5,0.2,0.9,0.5,1.2,0.9c0.3,0.3,0.5,0.7,0.6,1.1c0.2,0.4,0.2,0.8,0.2,1.3
				c0,0.6-0.2,1.2-0.5,1.8s-0.8,1-1.5,1.2c0.6,0.2,1,0.6,1.2,1c0.2,0.4,0.4,1.1,0.4,2v0.9c0,0.6,0,1,0.1,1.2
				c0.1,0.3,0.2,0.6,0.5,0.7v0.3h-2.9c-0.1-0.3-0.1-0.5-0.2-0.7c-0.1-0.4-0.1-0.7-0.1-1.1l0-1.2c0-0.8-0.2-1.3-0.4-1.6
				c-0.3-0.3-0.8-0.4-1.5-0.4h-2.6v5h-2.6V54.2h6.1C301.1,54.2,301.8,54.3,302.3,54.5z M296.8,56.4v3.4h2.8c0.6,0,1-0.1,1.3-0.2
				c0.5-0.2,0.8-0.7,0.8-1.4c0-0.8-0.2-1.3-0.7-1.5c-0.3-0.1-0.7-0.2-1.2-0.2H296.8z"/>
			<path class="st0" d="M318.1,65.7c-1,1-2.3,1.5-4.2,1.5c-1.8,0-3.2-0.5-4.2-1.5c-1.3-1.2-1.9-3-1.9-5.2c0-2.3,0.6-4.1,1.9-5.2
				c1-1,2.3-1.5,4.2-1.5c1.8,0,3.2,0.5,4.2,1.5c1.3,1.2,1.9,2.9,1.9,5.2C320,62.8,319.3,64.5,318.1,65.7z M316.4,63.8
				c0.6-0.8,0.9-1.9,0.9-3.3c0-1.4-0.3-2.5-0.9-3.3c-0.6-0.8-1.4-1.2-2.5-1.2s-1.9,0.4-2.5,1.2c-0.6,0.8-0.9,1.9-0.9,3.3
				c0,1.4,0.3,2.5,0.9,3.3c0.6,0.8,1.5,1.2,2.5,1.2S315.8,64.6,316.4,63.8z"/>
			<path class="st0" d="M332,61.4c-0.7,0.6-1.8,0.9-3.2,0.9h-2.6v4.6h-2.6V54.2h5.4c1.3,0,2.3,0.3,3,1s1.1,1.7,1.1,3
				C333.1,59.7,332.7,60.7,332,61.4z M329.9,56.8c-0.3-0.3-0.8-0.4-1.4-0.4h-2.4v3.7h2.4c0.6,0,1.1-0.2,1.4-0.5
				c0.3-0.3,0.5-0.8,0.5-1.4S330.3,57.1,329.9,56.8z"/>
			<path class="st0" d="M346,56.4h-6.7v2.7h6.2v2.2h-6.2v3.3h7v2.3h-9.6V54.2h9.3V56.4z"/>
		</g>
	</g>
</g>
</svg>
