<?xml version="1.0" encoding="UTF-8"?>
<svg width="32px" height="20px" viewBox="0 0 32 20" version="1.1" xmlns="http://www.w3.org/2000/svg" xmlns:xlink="http://www.w3.org/1999/xlink">
    <!-- Generator: Sketch 50.2 (55047) - http://www.bohemiancoding.com/sketch -->
    <title>GOOGLE +</title>
    <desc>Created with Sketch.</desc>
    <defs></defs>
    <g id="Symbols" stroke="none" stroke-width="1" fill="none" fill-rule="evenodd">
        <g id="GOOGLE-+" fill="#FFFFFF">
            <path d="M10.1818182,8.57142857 L19.7963636,8.57142857 C19.8836364,9.07142857 19.9563636,9.57142857 19.9563636,10.2285714 C19.9563636,15.9428571 16.0581818,20 10.1818182,20 C4.55272727,20 0,15.5285714 0,10 C0,4.47142857 4.55272727,0 10.1818182,0 C12.9309091,0 15.2290909,0.985714286 17.0036364,2.61428571 L14.24,5.22857143 C13.4836364,4.51428571 12.16,3.68571429 10.1818182,3.68571429 C6.70545455,3.68571429 3.86909091,6.51428571 3.86909091,10 C3.86909091,13.4857143 6.70545455,16.3142857 10.1818182,16.3142857 C14.2109091,16.3142857 15.7236364,13.4714286 15.9563636,12 L10.1818182,12 L10.1818182,8.57142857 Z M32,8.57142857 L32,11.4285714 L29.0909091,11.4285714 L29.0909091,14.2857143 L26.1818182,14.2857143 L26.1818182,11.4285714 L23.2727273,11.4285714 L23.2727273,8.57142857 L26.1818182,8.57142857 L26.1818182,5.71428571 L29.0909091,5.71428571 L29.0909091,8.57142857 L32,8.57142857 Z" id="Combined-Shape"></path>
        </g>
    </g>
</svg>