<?xml version="1.0" encoding="utf-8"?>
<!-- Generator: Adobe Illustrator 22.1.0, SVG Export Plug-In . SVG Version: 6.00 Build 0)  -->
<svg version="1.1" id="Calque_1" xmlns="http://www.w3.org/2000/svg" xmlns:xlink="http://www.w3.org/1999/xlink" x="0px" y="0px"
	 viewBox="0 0 297.6 220" style="enable-background:new 0 0 297.6 220;" xml:space="preserve">
<style type="text/css">
	.st0{fill:none;stroke:#E2E2E2;stroke-width:0.25;stroke-miterlimit:10;}
</style>
<g>
	<g>
		<path class="st0" d="M231.4,118.4c-0.5-8.2-3.2-16.3-8.1-23c-4.5-6.2-10.5-11-17.5-14.1c-7.8-3.4-16.4-4.5-24.9-3.7
			c-8.2,0.8-16.3,3.4-23.6,7.2c-7.4,3.8-14.1,8.7-20.1,14.4c-3.1,2.9-6.1,6-8.8,9.4c-2.6,3.2-4.9,6.7-7,10.2c-2,3.4-3.9,7-5.5,10.7
			c-1.4,3-2.8,6.2-2.9,9.6c-0.1,1.9,0.3,3.8,1.3,5.4c1,1.5,2.6,2.5,4.4,2.7c3.7,0.4,7.3-2.3,9.4-5.1c1.6-2,2.8-4.3,4-6.6
			c2-3.7,4.4-7.2,7.1-10.4c2.7-3.3,5.8-6.3,9.1-9.1c3.1-2.6,6.5-4.9,10.1-6.9c7.3-4,15.6-6.4,24-6c7.9,0.4,15.6,3.5,21,9.4
			c2.7,2.9,4.8,6.3,6.1,10c1.4,4,2,8.2,1.7,12.4c-0.4,7.9-3.5,15.5-7.9,22.1c-4.6,6.8-10.5,12.4-17.3,17c-3.5,2.4-7.4,4.3-11.3,5.9
			c-3.2,1.3-6.4,2.4-9.7,3.4c-6.2,1.9-12.6,3.2-19,4.1c-6.4,1-12.8,1.6-19.2,2.1c-5.1,0.4-10.3,0.6-15.4,0.8
			c-2.9,0.1-5.8,0.1-8.7,0.1c-1.5,0-3,0-4.4,0h-9.8H75.5H62.3H51.7h-5c-0.7,0-1.4,0.1-2.1,0.2c-1.7,0.4-3.8,1.4-3.9,3.4
			c-0.1,2,1.9,3.2,3.6,3.6c1.3,0.3,2.6,0.3,3.9,0.3h4.6h10.6h13.3h12.6h8.6c1,0,2,0,3,0c4.6,0,9.2-0.2,13.8-0.3
			c7.9-0.3,15.8-0.9,23.7-1.7c6.8-0.7,13.6-1.6,20.4-2.9c6.8-1.3,13.5-3.1,20-5.5c3.6-1.3,7.1-2.9,10.5-4.7
			c3.7-1.9,7.1-4.1,10.4-6.6c6.6-4.8,12.5-10.4,17.5-16.9c4.6-5.9,8.4-12.4,10.9-19.4C230.6,133.1,231.8,125.8,231.4,118.4"/>
	</g>
	<g>
		<path class="st0" d="M195.4,141.5c-0.2-4.1-1.6-8-4.3-11.1c-2.5-2.9-5.9-4.8-9.6-5.7c-8.1-1.9-16.7,1.2-23.4,5.8
			c-3.4,2.4-6.5,5.2-9.2,8.4c-1.2,1.4-2.4,3-3.4,4.6c-0.7,1.2-1.5,2.4-1.9,3.7c-0.6,1.8-0.7,3.9,0.5,5.5c1.1,1.6,3,2.2,4.9,2
			c3.1-0.3,5.6-2.3,7.7-4.4c1.4-1.3,2.7-2.7,4.3-3.9c1.6-1.2,3.3-2.3,5.1-3.1c3.6-1.6,8-2.6,11.7-0.8c1.6,0.8,2.9,2.1,3.7,3.7
			c0.8,1.7,1,3.7,0.7,5.5c-0.5,3.8-2.7,7.3-5.2,10.1c-2.7,3-6,5.4-9.6,7.2c-3.5,1.8-7.2,3-11,3.9c-6.9,1.8-14,2.9-21.1,3.8
			c-6.5,0.8-13.1,1.3-19.7,1.7c-4.7,0.2-9.3,0.4-14,0.4c-1.8,0-3.7,0-5.5,0H84.3H73.5c-1.5,0-3,0-4.2,1c-0.7,0.6-1,1.6-0.5,2.5
			c0.5,0.8,1.5,1.2,2.4,1.4c0.5,0.1,1,0.1,1.4,0.1c3.2,0,6.3,0,9.5,0c4.1,0,8.3,0,12.4,0c1.4,0,2.9,0,4.3,0c3.1,0.1,6.2,0,9.3,0
			c5.4-0.1,10.9-0.3,16.3-0.7c6.6-0.5,13.2-1.2,19.7-2.3c6.7-1.1,13.3-2.5,19.7-4.5c3.8-1.2,7.5-2.5,11-4.3c3.7-2,7.1-4.6,10.1-7.5
			c5.5-5.4,10-12.7,10.5-20.6C195.4,143,195.4,142.2,195.4,141.5"/>
	</g>
	<g>
		<path class="st0" d="M295.1,79.1c-0.6-8.3-2.4-16.5-5.4-24.2c-2.9-7.4-6.9-14.3-11.9-20.5c-4.6-5.7-10-10.9-16-15.1
			c-6-4.2-12.6-7.6-19.5-10c-7.8-2.8-16-4.3-24.2-4.8c-8.2-0.5-16.5,0.2-24.6,1.8c-8.3,1.6-16.3,4.2-24.1,7.5
			c-7.4,3.2-14.5,7.1-21.2,11.5c-7,4.6-13.5,9.8-19.6,15.6c-3.1,2.9-6.1,5.8-8.9,8.9c-2.9,3.1-5.7,6.3-8.2,9.7
			c-4.8,6.4-9.1,13.2-12.9,20.3c-3.6,6.6-6.8,13.5-9.6,20.5c-2.6,6.4-5,12.9-6.9,19.5c-1,3.4-2.2,6.9-2,10.5
			c0.1,1.9,0.6,3.8,1.7,5.4c1,1.5,2.7,2.5,4.5,2.7c4.1,0.3,7.5-3.3,9.3-6.6c0.7-1.2,1.1-2.5,1.7-3.8c0.8-1.8,1.4-3.6,2.2-5.5
			c3-7.6,6.4-15,10.5-22.1c4.2-7.3,9-14,14.8-20.1c5.8-6.2,12.1-11.9,19-16.9c6.6-4.7,13.7-8.7,21.2-11.8c7.7-3.2,15.8-5.3,24.1-6.2
			c8.5-0.9,17.1-0.3,25.3,1.9c7.6,2.1,14.9,5.5,21.2,10.4c6.1,4.7,11.3,10.6,15.2,17.3c4.1,7.1,6.7,15.1,7.7,23.3
			c1,8.5,0.3,17.1-1.8,25.3c-1.9,7.5-5,14.7-8.8,21.5c-3.8,6.7-8.5,12.9-13.6,18.6c-5.6,6.1-11.9,11.6-18.6,16.4
			c-3.5,2.5-7.1,4.9-10.9,7c-3.7,2-7.5,3.9-11.4,5.5c-7.4,3.1-15,5.5-22.8,7.2c-6.3,1.4-12.7,2.4-19.2,3.3c-4.2,0.6-8.3,1-12.5,1.3
			c-8.3,0.7-16.6,1.2-25,1.6c-6.6,0.3-13.3,0.5-20,0.6c-3.7,0.1-7.4,0.1-11,0.1h-3.3H71H59.2H45.9H32.7H21.5h-7.4
			c-1.8,0-3.6-0.1-5.4,0.1c-1.7,0.2-3.6,0.9-4.7,2.3c-0.6,0.7-0.9,1.7-0.7,2.6c0.1,0.9,0.7,1.7,1.5,2.3c2.1,1.7,4.9,1.6,7.5,1.6h4.2
			H24h11.2h13.2h13.3h11.7h8.3c1.1,0,2.1,0,3.2,0c5.8,0,11.6-0.1,17.5-0.2c3.3-0.1,6.6-0.2,9.9-0.3c5.3-0.2,10.7-0.5,16-0.8
			c6.2-0.4,12.4-0.8,18.6-1.4c6.1-0.6,12.2-1.4,18.2-2.5c7.1-1.2,14.1-2.7,21-4.6c7.5-2,15-4.5,22.2-7.4c3.8-1.5,7.5-3.2,11.2-5
			c3.7-1.8,7.4-3.7,10.9-6c7.2-4.6,14.2-9.7,20.7-15.3c6-5.2,11.5-10.8,16.6-16.9c4.9-5.9,9.3-12.2,13.2-18.8
			c3.7-6.4,6.9-13.2,9.2-20.2c2.8-8.2,4.6-16.7,5.2-25.3C295.4,87.1,295.4,83.1,295.1,79.1"/>
	</g>
</g>
</svg>
