<?xml version="1.0" encoding="UTF-8"?>
<svg width="28px" height="20px" viewBox="0 0 28 20" version="1.1" xmlns="http://www.w3.org/2000/svg" xmlns:xlink="http://www.w3.org/1999/xlink">
    <!-- Generator: Sketch 50.2 (55047) - http://www.bohemiancoding.com/sketch -->
    <title>YOUTUBE</title>
    <desc>Created with Sketch.</desc>
    <defs></defs>
    <g id="Symbols" stroke="none" stroke-width="1" fill="none" fill-rule="evenodd">
        <g id="YOUTUBE" fill="#FFFFFF">
            <path d="M26.607,1.49198027 C27.446125,2.35482294 27.72,4.31421336 27.72,4.31421336 C27.72,4.31421336 28,6.61571955 28,8.91633714 L28,11.0738881 C28,13.3753943 27.72,15.6760119 27.72,15.6760119 C27.72,15.6760119 27.446125,17.6354023 26.607,18.498245 C25.542125,19.6312258 24.348625,19.6365575 23.80175,19.7032034 C19.8835,19.9911139 14,20 14,20 C14,20 6.72,19.9324655 4.48,19.7138668 C3.857,19.5956813 2.457875,19.6312258 1.392125,18.498245 C0.553,17.6354023 0.28,15.6760119 0.28,15.6760119 C0.28,15.6760119 0,13.3753943 0,11.0738881 L0,8.91633714 C0,6.61571955 0.28,4.31421336 0.28,4.31421336 C0.28,4.31421336 0.553,2.35482294 1.392125,1.49198027 C2.457875,0.358999422 3.6505,0.353667748 4.19825,0.287910428 C8.1165,0 13.993875,0 14.006125,0 C14.006125,0 19.8835,0 23.80175,0.287910428 C24.348625,0.353667748 25.542125,0.358999422 26.607,1.49198027 Z M11.109,13.6881859 L18.673375,9.7072022 L11.108125,5.69867152 L11.109,13.6881859 Z" id="Combined-Shape"></path>
        </g>
    </g>
</svg>