<?xml version="1.0" encoding="utf-8"?>
<!-- Generator: Adobe Illustrator 22.1.0, SVG Export Plug-In . SVG Version: 6.00 Build 0)  -->
<svg version="1.1" id="Calque_1" xmlns="http://www.w3.org/2000/svg" xmlns:xlink="http://www.w3.org/1999/xlink" x="0px" y="0px"
	 viewBox="0 0 97.5 69.9" style="enable-background:new 0 0 97.5 69.9;" xml:space="preserve">
<style type="text/css">
	.st0{fill:none;stroke:#FFCD3A;stroke-width:2;}
</style>
<title>BENEVOLE</title>
<desc>Created with Sketch.</desc>
<g id="Symbols">
	<g id="BENEVOLE" transform="translate(0.000000, 1.000000)">
		<path id="Stroke-1" class="st0" d="M0,45.5h19.1c0,0,12.3-8.2,22.3-6.6c9.9,1.7,18.5,3.2,25.3,3.2h0.4c2.7,0,4.9,2.2,4.9,4.9
			c0,2.7-2.2,4.9-4.9,4.9h-23"/>
		<path id="Stroke-3" class="st0" d="M71.2,49l19-8.8c1.9-0.9,4.2-0.3,5.5,1.4c1.7,2.2,0.9,5.4-1.5,6.7l-27.5,14
			c-4.8,2.4-10,3.8-15.3,3.9c-7.8,0.2-19.7-1.1-27.3,0.6c-3.3,0.7-6.7,1.1-10.1,1.1H0.6"/>
		<path id="Stroke-5" class="st0" d="M39.1,29.8l6.4-6.4"/>
		<path id="Stroke-7" class="st0" d="M64.9,0.4c0,0,4.3,9.9-3,18.5c-7.3,8.6-16.6,4.6-16.6,4.6S40,14.9,47.2,6.4
			C54.5-2.2,64.9,0.4,64.9,0.4z"/>
		<path id="Stroke-9" class="st0" d="M61.1,5L49.2,19.2"/>
	</g>
</g>
</svg>
