<?xml version="1.0" encoding="utf-8"?>
<!-- Generator: Adobe Illustrator 22.1.0, SVG Export Plug-In . SVG Version: 6.00 Build 0)  -->
<svg version="1.1" id="Calque_1" xmlns="http://www.w3.org/2000/svg" xmlns:xlink="http://www.w3.org/1999/xlink" x="0px" y="0px"
	 viewBox="0 0 73 52.3" style="enable-background:new 0 0 73 52.3;" xml:space="preserve">
<style type="text/css">
	.st0{fill:none;stroke:#FFCD3A;stroke-width:2;}
</style>
<title>DON</title>
<desc>Created with Sketch.</desc>
<g id="Symbols">
	<g id="DON" transform="translate(1.000000, 1.000000)">
		<path id="Stroke-1" class="st0" d="M67.5,0.3H38.6c-5.7,0-11.2,1.6-15.9,4.7L12,11.8c-2.8,1.8-5,4.6-6,7.8l-1.5,4.9
			c-0.5,1.7-0.4,3.5,0.3,5.1l0.5,1.1"/>
		<path id="Stroke-3" class="st0" d="M13.5,25.1c0-2.2,1.3-4.2,3.3-5l8.7-3.7c1.1-0.5,2.3,0.1,2.7,1.2c0.4,1,0.9,2.1,1.5,3
			c0.9,1.2,1.1,2.7,0.6,4.1c-0.7,1.8-2.4,2.3-4.5,3.2c-1.7,0.8-5,2.3-7.5,3.6c-2,0.9-2.8,3.2-2,5.3c0.8,1.9,2.8,3,4.8,2.5L32,36.7
			l8-2c4.2-1.1,8.2-2.9,11.7-5.5l3.9-2.9c3-2.2,6.4-3.7,10.1-4.5l5.3-1.1"/>
		<path id="Stroke-5" class="st0" d="M8.8,50C5.3,47.5,3,43.4,3,38.7c0-7.7,6.2-13.9,13.9-13.9c3.2,0,6.2,1.1,8.5,2.9"/>
		<path id="Stroke-7" class="st0" d="M30.6,37c0.1,0.6,0.1,1.2,0.1,1.7c0,4.4-2.3,8.6-5.5,11.1"/>
		<path id="Stroke-9" class="st0" d="M29.9,43.9h0.9c1.7,0,3,1.3,3,3c0,1.7-1.3,3-3,3h-22H3c-1.7,0-3-1.3-3-3c0-1.7,1.3-3,3-3h0.9"
			/>
	</g>
</g>
</svg>
