<?xml version="1.0" encoding="utf-8"?>
<!-- Generator: Adobe Illustrator 22.1.0, SVG Export Plug-In . SVG Version: 6.00 Build 0)  -->
<svg version="1.1" id="Calque_1" xmlns="http://www.w3.org/2000/svg" xmlns:xlink="http://www.w3.org/1999/xlink" x="0px" y="0px"
	 viewBox="0 0 20.1 24" style="enable-background:new 0 0 20.1 24;" xml:space="preserve">
<title>LOCATION</title>
<desc>Created with Sketch.</desc>
<g id="Symbols">
	<g id="LOCATION">
		<g id="Combined-Shape">
			<path id="path-1_1_" d="M15.3,19.8c-1,1.1-2.1,2.1-3.2,2.9c-0.4,0.3-0.7,0.6-1.1,0.8c-0.2,0.1-0.3,0.2-0.4,0.3
				c-0.3,0.2-0.8,0.2-1.1,0c-0.1-0.1-0.2-0.2-0.4-0.3C8.8,23.3,8.4,23,8,22.7c-1.1-0.9-2.2-1.8-3.2-2.9c-3-3.1-4.8-6.4-4.8-9.8
				c0-5.5,4.5-10,10-10s10,4.5,10,10C20.1,13.4,18.3,16.7,15.3,19.8z M10.8,21.2c1-0.8,2-1.7,3-2.7c2.7-2.8,4.2-5.7,4.2-8.4
				c0-4.4-3.6-8-8-8s-8,3.6-8,8c0,2.8,1.6,5.6,4.2,8.4c0.9,1,2,1.9,3,2.7c0.3,0.2,0.5,0.4,0.8,0.6C10.3,21.6,10.6,21.4,10.8,21.2z
				 M10.1,14c-2.2,0-4-1.8-4-4s1.8-4,4-4s4,1.8,4,4S12.3,14,10.1,14z M10.1,12c1.1,0,2-0.9,2-2s-0.9-2-2-2s-2,0.9-2,2S9,12,10.1,12z
				"/>
		</g>
	</g>
</g>
</svg>
