<?xml version="1.0" encoding="utf-8"?>
<!-- Generator: Adobe Illustrator 22.1.0, SVG Export Plug-In . SVG Version: 6.00 Build 0)  -->
<svg version="1.1" id="Calque_1" xmlns="http://www.w3.org/2000/svg" xmlns:xlink="http://www.w3.org/1999/xlink" x="0px" y="0px"
	 viewBox="0 0 89.2 60.8" style="enable-background:new 0 0 89.2 60.8;" xml:space="preserve">
<style type="text/css">
	.st0{fill:none;stroke:#FFCD3A;stroke-width:2;}
</style>
<title>PARTENAIRE</title>
<desc>Created with Sketch.</desc>
<g id="Symbols">
	<g id="DEVENIR-PARTENAIRE" transform="translate(0.000000, 1.000000)">
		<path id="Stroke-1" class="st0" d="M22.6,39.8L0.7,22.7"/>
		<path id="Stroke-3" class="st0" d="M10.8,4.4c0,0,10.8,11.1,20.1,6.5c9.2-4.6,13.9-2,13.9-2"/>
		<path id="Stroke-5" class="st0" d="M79.9,0.5c0,0-8.5,9.7-22.7,6.7c-5-1.1-10.2,0.2-14.1,3.6c-2.6,2.2-4.5,4.4-4.5,4.4
			c-3.2,3.3-0.2,8.8,4.3,7.8c1.8-0.4,4-1.7,6.6-4.3l19.8,17.1c1.9,1.6,2.1,4.5,0.4,6.3c-1.6,1.7-4.2,2-6.1,0.5l-8.2-6.4l8.7,6.8
			c1.8,1.4,1.9,4,0.3,5.5c-1.3,1.3-3.3,1.4-4.8,0.4l-8.4-6.7l6.4,5c1.8,1.3,1.9,4,0.3,5.6c-1.3,1.3-3.3,1.4-4.8,0.3l-6.4-4.8"/>
		<path id="Stroke-7" class="st0" d="M88.4,19.1L68.2,35"/>
		<path id="Stroke-9" class="st0" d="M21.8,46.5c-1.6-1.3-1.8-3.6-0.6-5.1l4.4-5.4c1.3-1.6,3.6-1.8,5.1-0.6c1.6,1.3,1.8,3.6,0.6,5.1
			L26.9,46C25.7,47.5,23.4,47.8,21.8,46.5z"/>
		<path id="Stroke-11" class="st0" d="M27.4,51.4c-1.6-1.3-1.8-3.6-0.6-5.1l4.4-5.4c1.3-1.6,3.6-1.8,5.1-0.6
			c1.6,1.3,1.8,3.6,0.6,5.1l-4.4,5.4C31.2,52.4,28.9,52.7,27.4,51.4z"/>
		<path id="Stroke-13" class="st0" d="M33.3,56.1c-1.6-1.3-1.8-3.6-0.6-5.1l4.4-5.4c1.3-1.6,3.6-1.8,5.1-0.6
			c1.6,1.3,1.8,3.6,0.6,5.1l-4.4,5.4C37.1,57.1,34.8,57.4,33.3,56.1z"/>
		<path id="Stroke-15" class="st0" d="M40.2,52.2l7.1,5.6c1.4,1.1,3.4,1,4.6-0.3c1.5-1.5,1.3-3.9-0.3-5.2l-5-3.9"/>
	</g>
</g>
</svg>
