<?xml version="1.0" encoding="utf-8"?>
<!-- Generator: Adobe Illustrator 22.1.0, SVG Export Plug-In . SVG Version: 6.00 Build 0)  -->
<svg version="1.1" id="Calque_1" xmlns="http://www.w3.org/2000/svg" xmlns:xlink="http://www.w3.org/1999/xlink" x="0px" y="0px"
	 viewBox="0 0 13 13" style="enable-background:new 0 0 13 13;" xml:space="preserve">
<title>TIME</title>
<desc>Created with Sketch.</desc>
<g id="Symbols">
	<g id="TIME">
		<g id="Combined-Shape">
			<path id="path-1_1_" d="M6.5,13C2.9,13,0,10.1,0,6.5S2.9,0,6.5,0S13,2.9,13,6.5S10.1,13,6.5,13z M6.5,11.8c2.9,0,5.3-2.4,5.3-5.3
				S9.4,1.2,6.5,1.2S1.2,3.6,1.2,6.5S3.6,11.8,6.5,11.8z M7.1,3v3.3l1.6,1.6c0.2,0.2,0.2,0.6,0,0.8s-0.6,0.2-0.8,0L6.1,6.9
				C6,6.8,5.9,6.7,5.9,6.5V3c0-0.3,0.3-0.6,0.6-0.6S7.1,2.6,7.1,3z"/>
		</g>
	</g>
</g>
</svg>
