<?xml version="1.0" encoding="utf-8"?>
<!-- Generator: Adobe Illustrator 22.1.0, SVG Export Plug-In . SVG Version: 6.00 Build 0)  -->
<svg version="1.1" id="Calque_1" xmlns="http://www.w3.org/2000/svg" xmlns:xlink="http://www.w3.org/1999/xlink" x="0px" y="0px"
	 viewBox="0 0 127 45" style="enable-background:new 0 0 127 45;" xml:space="preserve">
<style type="text/css">
	.st0{fill:#232323;}
	.st1{fill:#FFFFFF;}
	.st2{font-family:'OpenSans';}
	.st3{font-size:8.7px;}
	.st4{font-size:16px;}
</style>
<title>App Store</title>
<desc>Created with Sketch.</desc>
<g id="Symbols">
	<g id="App-Store">
		<path id="button" class="st0" d="M7,0h113c3.9,0,7,3.1,7,7v31c0,3.9-3.1,7-7,7H7c-3.9,0-7-3.1-7-7V7C0,3.1,3.1,0,7,0z"/>
		<text transform="matrix(1 0 0 1 41 17)" class="st1 st2 st3">Télécharger sur</text>
		<text transform="matrix(1 0 0 1 41 33)" class="st1 st2 st4">App Store</text>
		<path id="logo" class="st1" d="M31.1,31.6C30,33.3,28.8,34.9,27,35c-1.8,0-2.4-1.1-4.5-1.1c-2.1,0-2.7,1-4.4,1.1
			c-1.8,0.1-3.1-1.8-4.3-3.4c-2.3-3.4-4.1-9.5-1.7-13.6c1.2-2.1,3.3-3.4,5.6-3.4c1.7,0,3.4,1.2,4.5,1.2c1.1,0,3.1-1.4,5.2-1.2
			c0.9,0,3.4,0.4,4.9,2.7c-0.1,0.1-3,1.7-2.9,5.1c0,4.1,3.6,5.4,3.6,5.5C33,27.9,32.4,29.7,31.1,31.6z M23.4,10c1-1.1,2.6-2,4-2
			c0.2,1.6-0.5,3.2-1.4,4.3c-0.9,1.1-2.5,2-4,1.9C21.8,12.7,22.5,11.1,23.4,10z"/>
	</g>
</g>
</svg>
