<?xml version="1.0" encoding="utf-8"?>
<!-- Generator: Adobe Illustrator 22.1.0, SVG Export Plug-In . SVG Version: 6.00 Build 0)  -->
<svg version="1.1" id="Calque_1" xmlns="http://www.w3.org/2000/svg" xmlns:xlink="http://www.w3.org/1999/xlink" x="0px" y="0px"
	 viewBox="0 0 127 45" style="enable-background:new 0 0 127 45;" xml:space="preserve">
<style type="text/css">
	.st0{fill:#232323;}
	.st1{fill:#FFFFFF;}
	.st2{font-family:'OpenSans';}
	.st3{font-size:8.7px;}
	.st4{font-family:'Roboto-Light';}
	.st5{font-size:14px;}
	.st6{fill:#85B8FB;}
	.st7{fill:#FEFEFE;}
</style>
<title>Google Play</title>
<desc>Created with Sketch.</desc>
<g id="Symbols">
	<g id="Google-Play">
		<path id="button-copy" class="st0" d="M7,0h113c3.9,0,7,3.1,7,7v31c0,3.9-3.1,7-7,7H7c-3.9,0-7-3.1-7-7V7C0,3.1,3.1,0,7,0z"/>
		<text transform="matrix(1 0 0 1 41 17)" class="st1 st2 st3">Télécharger sur</text>
		<text transform="matrix(1 0 0 1 87 33)" class="st1 st4 st5">play</text>
		<g id="Google">
			<g>
				<path class="st6" d="M70.2,35.9c0.1,0,0.2,0,0.4,0C70.4,35.9,70.3,35.9,70.2,35.9z"/>
				<path class="st1" d="M48.9,27c0.8,0,1.6,0,2.4,0c0.1,0,0.1,0,0.1,0.1c0.1,0.6,0.1,1.1,0,1.7c-0.1,0.7-0.3,1.4-0.8,2
					c-0.7,1-1.7,1.7-2.9,1.9c-1,0.2-2.1,0.2-3-0.2c-1.9-0.7-3.2-2.1-3.6-4.2c-0.3-1.4,0.1-2.8,0.9-3.9c0.9-1.3,2.1-2,3.6-2.2
					c1.7-0.2,3.2,0.2,4.4,1.3c0.1,0.1,0.1,0.1,0,0.1c-0.3,0.3-0.6,0.6-0.9,0.9c-0.1,0.1-0.1,0-0.1,0c-0.5-0.5-1.1-0.8-1.8-0.9
					c-2-0.3-3.8,0.7-4.3,2.5c-0.5,1.6-0.2,3,1,4.1c0.8,0.8,1.7,1.1,2.8,1.1c0.7,0,1.4-0.2,2.1-0.6c0.7-0.5,1.1-1.2,1.3-2
					c0-0.2,0-0.2-0.2-0.2c-1,0-2.1,0-3.1,0c-0.1,0-0.1,0-0.1-0.1c0-0.4,0-0.8,0-1.2c0-0.1,0-0.1,0.1-0.1C47.4,27,48.2,27,48.9,27z"
					/>
				<path class="st1" d="M76,27.6c0,1.6,0,3.3,0,4.9c0,0.1,0,0.1-0.1,0.1c-0.4,0-0.8,0-1.2,0c-0.1,0-0.1,0-0.1-0.1
					c0-3.3,0-6.6,0-9.9c0-0.1,0-0.1,0.1-0.1c0.4,0,0.9,0,1.3,0c0.1,0,0.1,0,0.1,0.1C76,24.3,76,25.9,76,27.6z"/>
				<g>
					<path class="st7" d="M72.3,26.2C72.2,26.2,72.2,26.2,72.3,26.2c-0.1,0.2-0.1,0.3-0.1,0.5c0,0,0,0.1,0,0.1c0,0-0.1,0-0.1,0
						c-0.1-0.1-0.2-0.2-0.3-0.3c-0.8-0.5-1.6-0.6-2.4-0.3c-1.6,0.6-2.5,2.1-2.3,3.8c0.2,1.4,1.3,2.6,2.7,2.9c0.9,0.2,1.7,0,2.4-0.7
						c0,0,0,0,0.1,0c0,0,0,0,0,0.1c0,0.3,0,0.6,0,0.8c-0.1,0.4-0.2,0.7-0.4,1c-0.5,0.5-1.1,0.6-1.8,0.5c-0.6-0.1-1-0.5-1.3-1.1
						c0-0.1-0.1-0.1-0.1-0.1c-0.4,0.2-0.8,0.3-1.2,0.5c-0.1,0-0.1,0,0,0.1c0.5,1,1.2,1.6,2.3,1.9c0.1,0,0.3,0,0.4,0.1
						c0,0,0.1,0,0.1,0c0.1,0,0.2,0,0.4,0c0,0,0.1,0,0.1,0c0,0,0,0,0.1,0c0.2,0,0.3,0,0.5-0.1c0.9-0.2,1.6-0.7,2.1-1.5
						c0.3-0.6,0.4-1.2,0.4-1.8c0-2.1,0-4.2,0-6.3c0,0,0,0,0,0c0-0.1,0-0.1-0.1-0.1C73.1,26.2,72.7,26.2,72.3,26.2z M71.7,30.9
						c-0.6,0.7-1.7,0.7-2.4,0.1c-0.5-0.4-0.8-1-0.8-1.7c0-0.5,0.2-1,0.6-1.4c0.9-1,2.5-0.7,3,0.6c0.1,0.3,0.2,0.6,0.2,0.9
						C72.3,30,72.1,30.5,71.7,30.9z"/>
					<path class="st7" d="M55.5,25.9c-2,0-3.5,1.5-3.5,3.5c0,1.9,1.5,3.4,3.5,3.4c1.9,0,3.5-1.5,3.5-3.5
						C59,27.4,57.5,25.9,55.5,25.9z M56.5,31.2c-0.8,0.5-1.8,0.3-2.4-0.4c-0.7-0.8-0.7-2.1,0-2.9c0.5-0.6,1.1-0.8,1.8-0.6
						c0.7,0.2,1.2,0.6,1.4,1.3c0.1,0.2,0.1,0.5,0.1,0.7C57.5,30.2,57.2,30.8,56.5,31.2z"/>
					<path class="st7" d="M63,25.9c-2,0-3.5,1.5-3.5,3.5c0,1.9,1.5,3.4,3.5,3.4c1.9,0,3.5-1.5,3.5-3.5C66.5,27.4,65,25.9,63,25.9z
						 M64.4,30.8c-1,1.1-2.7,0.8-3.2-0.6c-0.1-0.3-0.2-0.6-0.2-0.9c0-0.6,0.2-1.2,0.7-1.6c0.8-0.7,2-0.5,2.7,0.3
						C65.1,28.8,65.1,30.1,64.4,30.8z"/>
					<path class="st7" d="M81.4,29.2c0.5-0.2,1-0.4,1.6-0.7c0,0,0.1,0,0.1-0.1c-0.2-0.4-0.3-0.8-0.6-1.2c-0.6-0.9-1.4-1.4-2.5-1.4
						c-1.1,0-2,0.4-2.6,1.3c-0.5,0.6-0.7,1.4-0.7,2.2c0,0.2,0,0.4,0,0.6c0.3,1.6,1.5,2.8,3.2,2.8c1.3,0.1,2.3-0.4,3-1.4
						c0-0.1,0.1-0.1,0-0.1c-0.3-0.2-0.7-0.4-1-0.7c-0.1-0.1-0.1,0-0.2,0c-0.3,0.5-0.8,0.8-1.3,0.8c-0.8,0.1-1.5-0.2-1.9-0.9
						c0-0.1,0-0.1,0-0.1C79.4,30,80.4,29.6,81.4,29.2z M78.2,29.2c-0.1,0-0.1,0-0.1-0.1c0-0.9,0.6-1.7,1.6-1.9c0.1,0,0.2,0,0.3,0
						c0.3,0,0.7,0.1,1,0.4c0.1,0.1,0.2,0.2,0.2,0.3c0,0.1,0,0.1,0,0.1c-0.5,0.2-1,0.4-1.5,0.6C79.2,28.9,78.7,29,78.2,29.2z"/>
				</g>
			</g>
		</g>
		<path id="logo" class="st1" d="M11,32.4V11.6c0-0.7,0.4-1.3,1-1.6l12,12L12,34C11.4,33.7,11,33.1,11,32.4z M28,25.7L15,33l10.3-10
			L28,25.7z M32.2,20.6c0.5,0.3,0.8,0.8,0.8,1.4c0,0.6-0.3,1.1-0.7,1.4l-3,1.6L26,22l3.3-3L32.2,20.6z M15,11l13,7.3L25.3,21L15,11z
			"/>
	</g>
</g>
</svg>
