<?xml version="1.0" encoding="utf-8"?>
<!-- Generator: Adobe Illustrator 22.1.0, SVG Export Plug-In . SVG Version: 6.00 Build 0)  -->
<svg version="1.1" id="Calque_1" xmlns="http://www.w3.org/2000/svg" xmlns:xlink="http://www.w3.org/1999/xlink" x="0px" y="0px"
	 viewBox="0 0 12 14.4" style="enable-background:new 0 0 12 14.4;" xml:space="preserve">
<title>LOCATION</title>
<desc>Created with Sketch.</desc>
<g id="Symbols">
	<g id="LOCATION">
		<g id="Combined-Shape">
			<path id="path-1_1_" d="M9.1,11.9c-0.6,0.6-1.3,1.2-1.9,1.8C7,13.8,6.8,14,6.6,14.1c-0.1,0.1-0.2,0.1-0.3,0.2
				c-0.2,0.1-0.5,0.1-0.7,0c0,0-0.1-0.1-0.3-0.2C5.2,14,5,13.8,4.8,13.6c-0.7-0.5-1.3-1.1-1.9-1.8C1.1,10,0,8,0,6c0-3.3,2.7-6,6-6
				s6,2.7,6,6C12,8,10.9,10,9.1,11.9z M6.5,12.7c0.6-0.5,1.2-1,1.8-1.6c1.6-1.7,2.5-3.4,2.5-5.1c0-2.7-2.1-4.8-4.8-4.8
				S1.2,3.3,1.2,6c0,1.7,0.9,3.4,2.5,5.1c0.6,0.6,1.2,1.2,1.8,1.6C5.7,12.8,5.9,13,6,13.1C6.1,13,6.3,12.8,6.5,12.7z M6,8.4
				C4.7,8.4,3.6,7.3,3.6,6S4.7,3.6,6,3.6S8.4,4.7,8.4,6S7.3,8.4,6,8.4z M6,7.2c0.7,0,1.2-0.5,1.2-1.2S6.7,4.8,6,4.8S4.8,5.3,4.8,6
				S5.3,7.2,6,7.2z"/>
		</g>
	</g>
</g>
</svg>
