<?xml version="1.0" encoding="utf-8"?>
<!-- Generator: Adobe Illustrator 22.1.0, SVG Export Plug-In . SVG Version: 6.00 Build 0)  -->
<svg version="1.1" id="Calque_1" xmlns="http://www.w3.org/2000/svg" xmlns:xlink="http://www.w3.org/1999/xlink" x="0px" y="0px"
	 viewBox="0 0 12 12" style="enable-background:new 0 0 12 12;" xml:space="preserve">
<title>TIME</title>
<desc>Created with Sketch.</desc>
<g id="Symbols">
	<g id="TIME">
		<g id="Combined-Shape">
			<path id="path-1_1_" d="M6,12c-3.3,0-6-2.7-6-6s2.7-6,6-6s6,2.7,6,6S9.3,12,6,12z M6,10.9c2.7,0,4.9-2.2,4.9-4.9S8.7,1.1,6,1.1
				S1.1,3.3,1.1,6S3.3,10.9,6,10.9z M6.5,2.7v3L8,7.3C8.2,7.5,8.2,7.8,8,8C7.8,8.2,7.5,8.2,7.3,8L5.6,6.4C5.5,6.3,5.5,6.1,5.5,6V2.7
				c0-0.3,0.2-0.5,0.5-0.5S6.5,2.4,6.5,2.7z"/>
		</g>
	</g>
</g>
</svg>
