<?xml version="1.0" encoding="utf-8"?>
<!-- Generator: Adobe Illustrator 21.1.0, SVG Export Plug-In . SVG Version: 6.00 Build 0)  -->
<svg version="1.1" id="Layer_1" xmlns="http://www.w3.org/2000/svg" xmlns:xlink="http://www.w3.org/1999/xlink" x="0px" y="0px"
	 viewBox="0 0 18 20" style="enable-background:new 0 0 18 20;" xml:space="preserve">
<style type="text/css">
	.st0{fill:#183B4F;}
</style>
<title>PICTO COMPTE</title>
<desc>Created with Sketch.</desc>
<g id="Symbols">
	<g id="PICTO-COMPTE" transform="translate(9.000000, 10.000000) scale(1, -1) translate(-9.000000, -10.000000) ">
		<g id="Combined-Shape" transform="translate(9.000000, 10.000000) scale(1, -1) translate(-9.000000, -10.000000) ">
			<path id="path-1_1_" class="st0" d="M0,19c0,0.6,0.4,1,1,1s1-0.4,1-1v-2c0-1.7,1.3-3,3-3h8c1.7,0,3,1.3,3,3v2c0,0.6,0.4,1,1,1
				s1-0.4,1-1v-2c0-2.8-2.2-5-5-5H5c-2.8,0-5,2.2-5,5L0,19z M9,10c2.8,0,5-2.2,5-5s-2.2-5-5-5S4,2.2,4,5S6.2,10,9,10z M9,8
				C7.3,8,6,6.7,6,5s1.3-3,3-3s3,1.3,3,3S10.7,8,9,8z"/>
		</g>
	</g>
</g>
</svg>
