<?xml version="1.0" encoding="utf-8"?>
<!-- Generator: Adobe Illustrator 21.0.0, SVG Export Plug-In . SVG Version: 6.00 Build 0)  -->
<svg version="1.1" id="Layer_1" xmlns="http://www.w3.org/2000/svg" xmlns:xlink="http://www.w3.org/1999/xlink" x="0px" y="0px"
	 viewBox="0 0 96 98" style="enable-background:new 0 0 96 98;" xml:space="preserve">
<style type="text/css">
	.st0{fill:#183B4F;}
</style>
<title>Artboard 23</title>
<path class="st0" d="M4,10h3.8c3.3,0,6.3,2,7.5,5.1l15,39c-6.5,1.1-10.9,7.3-9.8,13.9c1,5.6,5.8,9.8,11.5,9.9h48c2.2,0,4-1.8,4-4
	s-1.8-4-4-4H32c-2.2,0-4-1.8-4-4c0-2.2,1.8-4,4-4h36.5c8.6,0,16.3-5.5,19-13.7l8.3-25.1c0.7-2.1-0.4-4.4-2.5-5.1
	c-0.4,0.1-0.9,0-1.3,0H24.9l-2.2-5.7C20.3,6.1,14.4,2,7.8,2H4C1.8,2,0,3.8,0,6S1.8,10,4,10z M86.4,26l-6.6,19.8
	c-1.6,4.9-6.2,8.2-11.4,8.2H38.8L28,26H86.4z"/>
<circle class="st0" cx="38" cy="92" r="6"/>
<circle class="st0" cx="66" cy="92" r="6"/>
</svg>
