<?xml version="1.0" encoding="utf-8"?>
<!-- Generator: Adobe Illustrator 21.0.0, SVG Export Plug-In . SVG Version: 6.00 Build 0)  -->
<svg version="1.1"
	 id="Layer_1" xmlns:cc="http://creativecommons.org/ns#" xmlns:dc="http://purl.org/dc/elements/1.1/" xmlns:inkscape="http://www.inkscape.org/namespaces/inkscape" xmlns:rdf="http://www.w3.org/1999/02/22-rdf-syntax-ns#" xmlns:sodipodi="http://sodipodi.sourceforge.net/DTD/sodipodi-0.dtd" xmlns:svg="http://www.w3.org/2000/svg"
	 xmlns="http://www.w3.org/2000/svg" xmlns:xlink="http://www.w3.org/1999/xlink" x="0px" y="0px" viewBox="0 0 78 78.1"
	 style="enable-background:new 0 0 78 78.1;" xml:space="preserve">
<style type="text/css">
	.st0{fill:#183B4F;}
</style>
<g transform="translate(0,-952.36218)">
	<path class="st0" d="M33,952.4c-18.2,0-33,14.8-33,33s14.8,33,33,33c7.3,0,14.1-2.4,19.5-6.4l16.9,17c2,2,5.1,2,7.1,0s2-5.1,0-7.1
		L59.6,1005c4-5.5,6.4-12.2,6.4-19.5C66,967.2,51.2,952.4,33,952.4z M33,962.4c12.8,0,23,10.2,23,23s-10.2,23-23,23s-23-10.2-23-23
		C10,972.6,20.2,962.4,33,962.4z"/>
</g>
</svg>
